<svg
    id="svg"
    version="1.1"
    xmlns="http://www.w3.org/2000/svg"
    xmlns:xlink="http://www.w3.org/1999/xlink"
    width="400"
    height="400"
    viewBox="0, 0, 400,400">
    <g id="svgg">
        <path
            id="path0"
            d="M79.366 26.081 C 79.292 26.200,79.711 27.671,80.296 29.349 C 83.532 38.630,86.628 47.557,87.874 51.200 C 88.652 53.473,90.811 59.713,92.671 65.067 C 94.531 70.420,96.689 76.660,97.466 78.933 C 98.244 81.207,100.343 87.267,102.132 92.400 C 103.920 97.533,106.081 103.773,106.934 106.267 C 107.787 108.760,110.008 115.180,111.870 120.533 C 113.732 125.887,115.735 131.767,116.321 133.600 C 118.020 138.914,121.098 148.100,123.691 155.600 C 128.778 170.311,130.968 176.635,133.202 183.067 C 134.475 186.733,136.154 191.593,136.932 193.867 C 137.711 196.140,139.871 202.380,141.733 207.733 C 143.596 213.087,145.756 219.327,146.533 221.600 C 147.311 223.873,149.471 230.113,151.333 235.467 C 153.196 240.820,155.355 247.060,156.133 249.333 C 156.911 251.607,159.010 257.667,160.798 262.800 C 162.587 267.933,164.748 274.173,165.601 276.667 C 166.455 279.160,168.195 284.200,169.468 287.867 C 173.171 298.532,176.475 308.079,178.003 312.533 C 178.784 314.807,180.944 321.047,182.804 326.400 C 184.664 331.753,186.822 337.993,187.600 340.267 C 188.378 342.540,190.537 348.780,192.397 354.133 C 194.258 359.487,196.490 365.944,197.356 368.483 C 199.203 373.893,199.317 374.133,200.023 374.133 C 200.758 374.133,198.764 379.804,241.252 256.933 C 244.701 246.960,248.523 235.920,249.744 232.400 C 253.909 220.402,256.767 212.141,259.064 205.467 C 260.325 201.800,262.007 196.940,262.800 194.667 C 263.594 192.393,265.754 186.153,267.600 180.800 C 269.446 175.447,271.606 169.207,272.399 166.933 C 275.600 157.757,282.400 138.048,282.400 137.945 C 282.400 137.885,282.518 137.908,282.663 137.998 C 282.825 138.098,282.865 137.856,282.766 137.365 C 282.649 136.777,283.137 135.053,284.638 130.752 C 295.273 100.276,320.593 26.951,320.625 26.533 C 320.666 26.003,320.503 26.000,293.333 26.000 L 266.000 26.000 265.375 27.867 C 265.032 28.893,260.493 43.113,255.288 59.467 C 250.084 75.820,244.086 94.660,241.960 101.333 C 239.834 108.007,234.736 124.027,230.632 136.933 C 226.527 149.840,222.227 163.340,221.075 166.933 C 217.185 179.073,215.249 185.154,210.677 199.600 C 208.170 207.520,205.952 214.480,205.748 215.067 C 205.415 216.022,202.656 224.665,200.895 230.267 C 200.526 231.440,200.144 232.483,200.045 232.584 C 199.897 232.737,197.236 224.544,188.899 198.267 C 188.387 196.653,187.625 194.253,187.204 192.933 C 186.784 191.613,186.081 189.393,185.641 188.000 C 185.202 186.607,182.968 179.587,180.677 172.400 C 175.734 156.892,173.920 151.196,171.421 143.333 C 170.396 140.107,169.393 136.987,169.192 136.400 C 168.992 135.813,168.048 132.873,167.095 129.867 C 166.142 126.860,163.127 117.380,160.395 108.800 C 157.663 100.220,155.012 91.880,154.504 90.267 C 153.221 86.196,152.205 82.994,151.202 79.867 C 150.732 78.400,149.947 75.940,149.459 74.400 C 148.970 72.860,145.853 63.080,142.532 52.667 C 139.211 42.253,136.201 32.773,135.843 31.600 C 135.485 30.427,134.923 28.687,134.595 27.733 L 133.999 26.000 106.749 25.932 C 91.762 25.895,79.439 25.962,79.366 26.081 "
            stroke="none"
            fill="#04539b"
            fill-rule="evenodd"></path>
        <path
            id="path1"
            d="M78.975 27.882 C 78.793 28.281,78.534 29.480,78.399 30.545 C 78.263 31.610,76.413 43.804,74.286 57.641 C 63.599 127.164,60.496 147.413,60.401 148.267 C 60.344 148.780,60.185 149.800,60.048 150.533 C 59.910 151.267,59.795 152.047,59.791 152.267 C 59.787 152.487,59.655 153.303,59.497 154.080 C 59.338 154.857,59.227 155.577,59.249 155.680 C 59.272 155.783,59.208 156.287,59.109 156.800 C 59.009 157.313,58.875 158.153,58.811 158.667 C 58.747 159.180,58.524 160.560,58.315 161.733 C 58.106 162.907,57.926 164.047,57.913 164.267 C 57.888 164.716,57.700 166.067,57.467 167.467 C 57.381 167.980,57.261 168.760,57.200 169.200 C 57.139 169.640,57.019 170.420,56.933 170.933 C 56.848 171.447,56.728 172.227,56.667 172.667 C 56.606 173.107,56.492 173.887,56.414 174.400 C 56.336 174.913,56.200 175.813,56.111 176.400 C 56.023 176.987,55.911 177.707,55.863 178.000 C 55.815 178.293,55.695 179.073,55.596 179.733 C 55.497 180.393,55.364 181.233,55.300 181.600 C 55.236 181.967,55.124 182.687,55.052 183.200 C 54.840 184.695,54.651 185.950,54.528 186.667 C 54.466 187.033,54.346 187.813,54.262 188.400 C 54.178 188.987,54.058 189.767,53.995 190.133 C 53.887 190.766,53.819 191.222,53.457 193.733 C 53.372 194.320,53.250 195.130,53.185 195.533 C 52.949 196.993,52.832 197.753,52.682 198.800 C 52.597 199.387,52.467 200.227,52.393 200.667 C 52.319 201.107,52.199 201.887,52.127 202.400 C 52.054 202.913,51.934 203.693,51.860 204.133 C 51.786 204.573,51.666 205.353,51.593 205.867 C 51.521 206.380,51.400 207.160,51.325 207.600 C 51.250 208.040,51.126 208.820,51.049 209.333 C 50.972 209.847,50.859 210.567,50.798 210.933 C 50.736 211.300,50.624 212.080,50.547 212.667 C 50.470 213.253,50.347 214.093,50.273 214.533 C 50.199 214.973,50.079 215.753,50.007 216.267 C 49.934 216.780,49.814 217.560,49.740 218.000 C 49.666 218.440,49.547 219.220,49.476 219.733 C 49.405 220.247,49.274 221.087,49.185 221.600 C 49.096 222.113,48.983 222.833,48.934 223.200 C 48.884 223.567,48.774 224.317,48.688 224.867 C 48.603 225.417,48.464 226.317,48.380 226.867 C 48.295 227.417,48.173 228.167,48.107 228.533 C 47.955 229.386,47.782 230.520,47.598 231.867 C 47.440 233.024,47.266 234.153,47.084 235.200 C 47.021 235.567,46.902 236.347,46.822 236.933 C 46.741 237.520,46.614 238.360,46.540 238.800 C 46.466 239.240,46.346 240.020,46.273 240.533 C 46.201 241.047,46.081 241.827,46.007 242.267 C 45.881 243.015,45.812 243.486,45.480 245.867 C 45.409 246.380,45.297 247.100,45.232 247.467 C 45.166 247.833,45.039 248.733,44.949 249.467 C 44.859 250.200,44.709 251.160,44.616 251.600 C 44.524 252.040,44.414 252.640,44.372 252.933 C 44.133 254.607,43.973 255.676,43.872 256.267 C 43.809 256.633,43.689 257.413,43.605 258.000 C 43.521 258.587,43.401 259.367,43.338 259.733 C 43.276 260.100,43.156 260.880,43.072 261.467 C 42.988 262.053,42.868 262.833,42.805 263.200 C 42.675 263.962,42.472 265.308,42.284 266.667 C 42.213 267.180,42.085 268.020,42.000 268.533 C 41.914 269.047,41.793 269.827,41.731 270.267 C 41.668 270.707,41.557 271.427,41.484 271.867 C 41.411 272.307,41.285 273.267,41.202 274.000 C 41.120 274.733,40.983 275.559,40.898 275.835 C 40.812 276.110,40.705 276.650,40.659 277.035 C 40.576 277.727,40.354 279.251,40.149 280.533 C 40.090 280.900,39.970 281.680,39.882 282.267 C 39.794 282.853,39.670 283.633,39.607 284.000 C 39.477 284.745,39.279 286.064,39.084 287.467 C 39.013 287.980,38.885 288.820,38.800 289.333 C 38.714 289.847,38.594 290.627,38.533 291.067 C 38.472 291.507,38.352 292.287,38.267 292.800 C 38.181 293.313,38.060 294.093,37.997 294.533 C 37.935 294.973,37.823 295.693,37.750 296.133 C 37.677 296.573,37.545 297.587,37.458 298.386 C 37.371 299.185,37.245 299.927,37.179 300.035 C 37.112 300.142,36.994 300.907,36.915 301.734 C 36.837 302.561,36.666 303.517,36.537 303.858 C 36.407 304.199,36.354 304.531,36.418 304.596 C 36.483 304.661,36.408 305.363,36.252 306.157 C 36.096 306.951,35.920 307.960,35.861 308.400 C 35.803 308.840,35.685 309.620,35.600 310.133 C 35.514 310.647,35.394 311.427,35.333 311.867 C 35.272 312.307,35.151 313.087,35.064 313.600 C 34.897 314.589,34.829 315.067,34.553 317.200 C 34.458 317.933,34.257 319.193,34.106 320.000 C 33.955 320.807,33.789 321.767,33.737 322.133 C 33.685 322.500,33.567 323.280,33.476 323.867 C 33.384 324.453,33.300 325.113,33.289 325.333 C 33.278 325.553,33.156 326.333,33.018 327.067 C 32.881 327.800,32.720 328.760,32.661 329.200 C 32.603 329.640,32.485 330.420,32.400 330.933 C 32.314 331.447,32.194 332.227,32.133 332.667 C 32.072 333.107,31.951 333.887,31.864 334.400 C 31.681 335.482,31.591 336.116,31.333 338.133 C 31.231 338.940,31.038 340.200,30.906 340.933 C 30.775 341.667,30.597 342.923,30.512 343.725 C 30.426 344.527,30.251 345.381,30.121 345.623 C 29.991 345.865,29.942 346.120,30.011 346.188 C 30.080 346.257,30.008 346.963,29.852 347.757 C 29.696 348.551,29.516 349.740,29.452 350.400 C 29.388 351.060,29.259 351.900,29.165 352.267 C 28.983 352.980,28.958 353.149,28.680 355.586 C 28.581 356.459,28.445 357.261,28.379 357.368 C 28.312 357.476,28.194 358.240,28.115 359.067 C 28.037 359.894,27.866 360.850,27.737 361.191 C 27.607 361.533,27.546 361.857,27.601 361.912 C 27.656 361.967,27.409 363.809,27.051 366.006 C 26.694 368.203,26.338 370.600,26.260 371.333 C 26.182 372.067,26.066 372.813,26.004 372.992 C 25.597 374.152,25.155 374.133,53.355 374.133 C 82.928 374.133,80.739 374.264,80.961 372.487 C 81.004 372.146,81.095 371.507,81.163 371.067 C 81.232 370.627,81.363 369.667,81.454 368.933 C 81.545 368.200,81.742 366.940,81.892 366.133 C 82.041 365.327,82.222 364.090,82.294 363.385 C 82.366 362.680,82.532 361.822,82.662 361.479 C 82.793 361.136,82.846 360.802,82.782 360.737 C 82.717 360.673,82.792 359.970,82.948 359.176 C 83.104 358.383,83.280 357.373,83.339 356.933 C 83.397 356.493,83.515 355.713,83.600 355.200 C 83.686 354.687,83.806 353.907,83.867 353.467 C 83.928 353.027,84.048 352.247,84.133 351.733 C 84.219 351.220,84.339 350.440,84.400 350.000 C 84.461 349.560,84.582 348.780,84.669 348.267 C 84.837 347.278,84.904 346.800,85.181 344.667 C 85.276 343.933,85.477 342.673,85.627 341.867 C 85.778 341.060,85.944 340.100,85.996 339.733 C 86.129 338.801,86.391 337.059,86.518 336.267 C 86.576 335.900,86.696 335.120,86.784 334.533 C 86.872 333.947,86.998 333.107,87.064 332.667 C 87.130 332.227,87.235 331.567,87.296 331.200 C 87.358 330.833,87.483 329.933,87.576 329.200 C 87.668 328.467,87.812 327.567,87.897 327.200 C 87.981 326.833,88.098 326.113,88.155 325.600 C 88.213 325.087,88.340 324.247,88.437 323.733 C 88.716 322.250,88.741 322.085,88.922 320.448 C 89.017 319.594,89.200 318.616,89.330 318.275 C 89.460 317.934,89.513 317.602,89.448 317.537 C 89.384 317.473,89.459 316.770,89.615 315.976 C 89.771 315.183,89.958 313.956,90.029 313.251 C 90.100 312.546,90.265 311.689,90.395 311.346 C 90.526 311.002,90.580 310.669,90.515 310.604 C 90.450 310.539,90.525 309.837,90.682 309.043 C 90.838 308.249,91.013 307.240,91.072 306.800 C 91.130 306.360,91.249 305.580,91.336 305.067 C 91.495 304.125,91.530 303.884,91.853 301.467 C 91.951 300.733,92.269 298.693,92.560 296.933 C 92.850 295.173,93.138 293.403,93.199 292.999 C 93.259 292.595,93.362 291.935,93.426 291.532 C 93.491 291.130,93.624 290.086,93.722 289.214 C 93.820 288.341,93.957 287.537,94.025 287.426 C 94.093 287.315,94.212 286.589,94.288 285.812 C 94.364 285.036,94.488 284.221,94.563 284.002 C 94.638 283.783,94.758 283.003,94.829 282.269 C 94.901 281.534,95.019 280.760,95.091 280.548 C 95.164 280.336,95.282 279.616,95.355 278.948 C 95.427 278.280,95.609 277.073,95.758 276.267 C 95.908 275.460,96.089 274.223,96.161 273.518 C 96.233 272.813,96.398 271.955,96.529 271.612 C 96.659 271.269,96.713 270.935,96.648 270.871 C 96.584 270.806,96.659 270.104,96.815 269.310 C 96.971 268.516,97.158 267.290,97.229 266.585 C 97.300 265.880,97.465 265.022,97.595 264.679 C 97.726 264.336,97.780 264.002,97.715 263.937 C 97.650 263.873,97.725 263.170,97.882 262.376 C 98.038 261.583,98.215 260.573,98.274 260.133 C 98.334 259.693,98.443 258.973,98.516 258.533 C 98.589 258.093,98.713 257.193,98.792 256.533 C 98.871 255.873,99.055 254.673,99.200 253.867 C 99.345 253.060,99.528 251.800,99.607 251.067 C 99.685 250.333,99.816 249.553,99.898 249.333 C 99.980 249.113,100.106 248.277,100.178 247.475 C 100.251 246.673,100.416 245.819,100.546 245.577 C 100.675 245.335,100.725 245.080,100.656 245.012 C 100.587 244.943,100.660 244.237,100.817 243.443 C 101.119 241.923,101.174 241.556,101.453 239.200 C 101.548 238.393,101.685 237.560,101.758 237.348 C 101.830 237.136,101.952 236.416,102.027 235.748 C 102.103 235.080,102.401 233.093,102.691 231.333 C 102.980 229.573,103.279 227.556,103.354 226.851 C 103.430 226.146,103.598 225.289,103.729 224.946 C 103.859 224.602,103.913 224.269,103.848 224.204 C 103.784 224.139,103.859 223.437,104.015 222.643 C 104.171 221.849,104.358 220.623,104.429 219.918 C 104.500 219.213,104.665 218.355,104.795 218.012 C 104.926 217.669,104.980 217.335,104.915 217.271 C 104.850 217.206,104.925 216.504,105.081 215.710 C 105.237 214.916,105.419 213.787,105.485 213.200 C 105.551 212.613,105.963 209.913,106.400 207.200 C 106.837 204.487,107.260 201.731,107.339 201.077 C 107.418 200.423,107.723 198.443,108.017 196.677 C 108.310 194.911,108.614 192.874,108.691 192.149 C 108.768 191.424,108.886 190.744,108.952 190.636 C 109.018 190.529,109.139 189.862,109.220 189.154 C 109.302 188.446,109.723 185.647,110.157 182.933 C 110.591 180.220,111.009 177.423,111.086 176.718 C 111.162 176.013,111.332 175.155,111.462 174.812 C 111.593 174.469,111.646 174.135,111.582 174.071 C 111.517 174.006,111.592 173.304,111.748 172.510 C 111.905 171.716,112.091 170.490,112.162 169.785 C 112.233 169.080,112.398 168.222,112.529 167.879 C 112.659 167.536,112.719 167.208,112.662 167.151 C 112.605 167.094,112.733 166.031,112.947 164.790 C 113.161 163.549,113.405 161.877,113.490 161.075 C 113.574 160.273,113.749 159.419,113.879 159.177 C 114.009 158.935,114.062 158.685,113.998 158.621 C 113.935 158.557,113.999 157.851,114.141 157.052 C 114.284 156.254,114.470 154.944,114.555 154.142 C 114.640 153.340,114.816 152.486,114.946 152.244 C 115.075 152.002,115.131 151.753,115.069 151.692 C 115.008 151.630,115.479 148.228,116.117 144.132 L 117.276 136.684 98.530 82.542 C 88.220 52.764,79.676 28.120,79.545 27.778 L 79.305 27.156 78.975 27.882 M301.786 81.736 L 282.905 136.282 283.027 138.074 C 283.094 139.060,283.214 140.047,283.293 140.267 C 283.470 140.760,285.618 154.852,285.558 155.132 C 285.535 155.243,285.584 155.513,285.668 155.733 C 285.936 156.433,288.550 173.939,288.407 174.081 C 288.333 174.156,288.384 174.354,288.523 174.521 C 288.661 174.687,288.828 175.478,288.893 176.279 C 288.958 177.079,289.074 177.913,289.152 178.133 C 289.309 178.582,291.772 194.618,291.876 195.867 C 291.912 196.307,292.005 196.847,292.082 197.067 C 292.360 197.860,293.369 205.120,293.222 205.267 C 293.139 205.350,293.191 205.562,293.337 205.738 C 293.484 205.915,293.652 206.706,293.711 207.496 C 293.770 208.287,293.882 209.113,293.960 209.333 C 294.135 209.828,298.413 237.629,298.520 238.970 C 298.563 239.504,298.668 240.054,298.754 240.192 C 298.839 240.330,298.959 241.110,299.020 241.925 C 299.082 242.740,299.202 243.520,299.287 243.658 C 299.373 243.797,299.495 244.560,299.560 245.355 C 299.625 246.150,299.741 246.980,299.818 247.200 C 299.966 247.622,301.872 260.001,302.035 261.600 C 302.087 262.113,302.251 263.125,302.399 263.847 C 302.547 264.570,302.649 265.290,302.625 265.447 C 302.602 265.605,302.651 265.913,302.736 266.133 C 302.930 266.643,304.040 273.990,303.968 274.301 C 303.939 274.429,303.988 274.713,304.076 274.933 C 304.259 275.388,306.957 292.957,306.891 293.265 C 306.868 293.376,306.918 293.647,307.003 293.867 C 307.184 294.337,308.024 299.894,307.959 300.195 C 307.935 300.308,307.984 300.580,308.068 300.800 C 308.339 301.507,309.361 308.595,309.213 308.742 C 309.135 308.820,309.184 309.021,309.323 309.187 C 309.461 309.354,309.625 310.162,309.686 310.982 C 309.748 311.802,309.868 312.587,309.954 312.725 C 310.039 312.863,310.159 313.643,310.220 314.458 C 310.282 315.273,310.402 316.053,310.487 316.192 C 310.573 316.330,310.695 317.094,310.760 317.888 C 310.825 318.683,310.941 319.513,311.018 319.733 C 311.189 320.219,312.586 329.399,312.667 330.564 C 312.699 331.021,312.796 331.511,312.883 331.653 C 312.971 331.794,313.095 332.560,313.160 333.355 C 313.225 334.150,313.340 334.980,313.415 335.200 C 313.687 335.991,314.176 339.780,314.025 339.930 C 313.941 340.015,313.991 340.229,314.137 340.405 C 314.284 340.581,314.452 341.372,314.511 342.163 C 314.570 342.953,314.682 343.780,314.760 344.000 C 314.879 344.336,316.121 352.358,316.247 353.600 C 316.269 353.820,316.323 354.369,316.366 354.820 C 316.409 355.272,316.519 355.761,316.610 355.909 C 316.701 356.056,316.826 356.843,316.887 357.658 C 316.948 358.473,317.068 359.253,317.154 359.392 C 317.239 359.530,317.362 360.294,317.427 361.088 C 317.492 361.883,317.608 362.713,317.686 362.933 C 317.764 363.153,318.152 365.553,318.548 368.267 C 318.945 370.980,319.414 373.356,319.591 373.547 C 320.113 374.110,372.730 374.350,373.457 373.793 C 373.972 373.397,373.863 372.627,366.813 326.762 C 362.872 301.116,359.619 279.773,359.586 279.333 C 359.552 278.893,359.461 278.353,359.383 278.133 C 359.219 277.671,349.593 215.004,349.470 213.600 C 349.425 213.087,349.326 212.487,349.248 212.267 C 349.072 211.763,345.584 188.875,345.642 188.602 C 345.665 188.491,345.615 188.220,345.530 188.000 C 345.349 187.533,341.845 164.634,341.908 164.335 C 341.932 164.224,341.882 163.953,341.797 163.733 C 341.528 163.039,339.179 147.132,339.324 146.987 C 339.400 146.911,339.349 146.713,339.211 146.546 C 339.072 146.379,338.906 145.588,338.841 144.788 C 338.775 143.988,338.660 143.153,338.583 142.933 C 338.393 142.383,337.299 135.054,337.365 134.766 C 337.394 134.638,337.346 134.353,337.257 134.133 C 336.990 133.469,335.443 122.869,335.591 122.720 C 335.667 122.644,335.616 122.446,335.477 122.279 C 335.339 122.113,335.172 121.322,335.107 120.521 C 335.042 119.721,334.926 118.887,334.850 118.667 C 334.659 118.116,333.566 110.787,333.632 110.499 C 333.661 110.371,333.612 110.087,333.524 109.867 C 333.341 109.411,331.709 98.778,331.775 98.469 C 331.799 98.358,331.749 98.087,331.665 97.867 C 331.470 97.358,330.360 90.010,330.432 89.699 C 330.461 89.571,330.412 89.287,330.324 89.067 C 330.057 88.402,328.509 77.802,328.658 77.654 C 328.733 77.578,328.682 77.379,328.544 77.213 C 328.406 77.046,328.239 76.255,328.174 75.455 C 328.109 74.655,327.994 73.820,327.918 73.600 C 327.646 72.809,327.158 69.020,327.308 68.870 C 327.393 68.785,327.342 68.571,327.196 68.395 C 327.049 68.219,326.881 67.428,326.822 66.637 C 326.763 65.847,326.654 65.020,326.580 64.800 C 326.308 63.993,325.315 56.996,325.453 56.858 C 325.531 56.780,325.482 56.579,325.344 56.413 C 325.206 56.246,325.042 55.438,324.980 54.618 C 324.919 53.798,324.798 53.013,324.713 52.875 C 324.627 52.737,324.505 51.973,324.440 51.178 C 324.375 50.384,324.260 49.553,324.185 49.333 C 323.993 48.774,323.429 44.930,323.496 44.639 C 323.526 44.508,323.483 44.220,323.399 44.000 C 323.129 43.292,321.578 32.733,321.722 32.589 C 321.799 32.512,321.749 32.313,321.611 32.146 C 321.472 31.979,321.306 31.188,321.241 30.388 C 321.175 29.588,321.057 28.753,320.977 28.533 C 320.897 28.313,320.794 27.921,320.749 27.661 C 320.704 27.402,312.170 51.735,301.786 81.736 "
            stroke="none"
            fill="#04b3fb"
            fill-rule="evenodd"></path>
        <path id="path2" d="" stroke="none" fill="#0479b6" fill-rule="evenodd"></path>
        <path id="path3" d="" stroke="none" fill="#0460a6" fill-rule="evenodd"></path>
        <path
            id="path4"
            d="M323.816 374.066 C 325.989 374.111,329.469 374.111,331.550 374.066 C 333.631 374.021,331.853 373.984,327.600 373.984 C 323.347 373.984,321.644 374.021,323.816 374.066 "
            stroke="none"
            fill="#0492d5"
            fill-rule="evenodd"></path>
    </g>
</svg>